<svg width="20" height="21" viewBox="0 0 20 21" fill="none" xmlns="http://www.w3.org/2000/svg">
<path d="M10.8333 13.8344H10V10.5011H9.16667M10 7.16777H10.0083M17.5 10.5011C17.5 11.486 17.306 12.4613 16.9291 13.3712C16.5522 14.2812 15.9997 15.108 15.3033 15.8044C14.6069 16.5008 13.7801 17.0533 12.8701 17.4302C11.9602 17.8071 10.9849 18.0011 10 18.0011C9.01509 18.0011 8.03982 17.8071 7.12987 17.4302C6.21993 17.0533 5.39314 16.5008 4.6967 15.8044C4.00026 15.108 3.44781 14.2812 3.0709 13.3712C2.69399 12.4613 2.5 11.486 2.5 10.5011C2.5 8.51197 3.29018 6.60432 4.6967 5.1978C6.10322 3.79128 8.01088 3.0011 10 3.0011C11.9891 3.0011 13.8968 3.79128 15.3033 5.1978C16.7098 6.60432 17.5 8.51197 17.5 10.5011Z" stroke="#7E329A" stroke-width="2" stroke-linecap="round" stroke-linejoin="round"/>
</svg>
